Coordinates
version=1
nRows=16
nColumns=36
inDegrees=yes

Units are S.I. units (second, meters, Newtons, ...)
If the header above contains a line with 'inDegrees', this indicates whether rotational values are in degrees (yes) or radians (no).

endheader
time	pelvis_tilt	pelvis_list	pelvis_rotation	pelvis_tx	pelvis_ty	pelvis_tz	hip_flexion_r	hip_adduction_r	hip_rotation_r	knee_angle_r	knee_angle_r_beta	ankle_angle_r	subtalar_angle_r	mtp_angle_r	hip_flexion_l	hip_adduction_l	hip_rotation_l	knee_angle_l	knee_angle_l_beta	ankle_angle_l	subtalar_angle_l	mtp_angle_l	lumbar_extension	lumbar_bending	lumbar_rotation	arm_flex_r	arm_add_r	arm_rot_r	elbow_flex_r	pro_sup_r	arm_flex_l	arm_add_l	arm_rot_l	elbow_flex_l	pro_sup_l
      0.00000000	     -0.56395264	     -0.49610076	     -2.90061008	     -0.12302638	      0.95577583	     -0.57726564	     -1.17587840	     -6.29156112	     -7.67636909	      2.08001133	      0.03630305	      5.15744508	      3.90584761	     -6.29425166	     -1.29375161	     -7.16730734	    -12.60464406	      2.55864954	      0.04465686	      5.48439079	     10.43013637	     -6.29425166	     -6.69607080	     -0.67018834	      0.14133905	     -8.37822651	     -9.44832814	     -4.32388051	    120.76588813	     95.61212834	     -8.39917708	     -7.60586347	     -3.97289324	    121.15151260	     91.44472255
      0.01000000	     -0.59592890	     -0.55163050	     -2.97849830	     -0.12336022	      0.95578676	     -0.57697087	     -1.13103153	     -6.20214115	     -7.41514091	      2.02132358	      0.03527875	      4.96558313	      3.64174982	     -6.80876966	     -1.19112469	     -7.28005413	    -13.08983613	      2.68905241	      0.04693282	      5.68323007	     11.14510331	     -6.80876966	     -6.72036027	     -0.62142124	      0.23773201	     -8.31843103	     -9.45734208	     -4.47145677	    120.45893104	     99.50097168	     -8.34364131	     -7.61893501	     -4.06167029	    120.77249211	     94.44400851
      0.02000000	     -0.60258619	     -0.56361696	     -2.99702588	     -0.12373492	      0.95581033	     -0.57686223	     -1.09133808	     -6.18681773	     -7.39687259	      2.03209319	      0.03546672	      4.97220062	      3.70022473	     -7.09671317	     -1.13693037	     -7.31679188	    -13.23464913	      2.74250292	      0.04786571	      5.73669951	     11.36282286	     -7.09671317	     -6.78560953	     -0.60748315	      0.26378002	     -8.23650474	     -9.50163453	     -4.41136951	    120.48321043	     99.36894059	     -8.27962671	     -7.63129093	     -4.03472966	    120.75697674	     94.35151009
      0.03000000	     -0.62491234	     -0.55866290	     -2.98503976	     -0.12414419	      0.95580886	     -0.57687778	     -1.03342398	     -6.20004866	     -7.43077865	      2.04712395	      0.03572905	      4.97561937	      3.82460176	     -7.14783938	     -1.10332677	     -7.30222782	    -13.05486052	      2.69493606	      0.04703551	      5.61541925	     11.05569899	     -7.14783938	     -6.84573770	     -0.60672392	      0.26697635	     -8.17295369	     -9.56759984	     -4.29764349	    120.64210439	     97.40263955	     -8.20536946	     -7.65399672	     -3.89061371	    120.94795970	     92.69017795
      0.04000000	     -0.59030750	     -0.56511249	     -2.96948071	     -0.12456065	      0.95592093	     -0.57682777	     -1.05663106	     -6.18443822	     -7.41418023	      2.02867135	      0.03540699	      4.92417692	      3.73142833	     -7.18353740	     -1.13026110	     -7.30145826	    -12.95276417	      2.64723357	      0.04620294	      5.47175002	     10.82338884	     -7.18353740	     -6.96979213	     -0.60347228	      0.27407560	     -8.07778764	     -9.61945934	     -4.22082997	    120.72245694	     96.17265938	     -8.11603663	     -7.68416164	     -3.78491378	    121.05413448	     91.59067120
      0.05000000	     -0.52165868	     -0.56930505	     -2.90711294	     -0.12500646	      0.95610272	     -0.57677706	     -1.09505260	     -6.18013532	     -7.61764814	      2.06024811	      0.03595811	      4.92444616	      3.87883476	     -7.22400758	     -1.14710911	     -7.31364970	    -13.02040165	      2.65257645	      0.04629619	      5.37418277	     10.90578009	     -7.22400758	     -7.15975720	     -0.62296718	      0.22687587	     -7.95791437	     -9.66546634	     -4.16367611	    120.78803373	     95.31694536	     -7.97958497	     -7.75377469	     -3.66227924	    121.15967326	     90.77460717
      0.06000000	     -0.58166149	     -0.60425524	     -2.93833595	     -0.12556570	      0.95613164	     -0.57648648	     -0.98113023	     -6.10168567	     -7.41468287	      2.06021598	      0.03595755	      4.76122665	      3.53408080	     -7.30063075	     -0.99519500	     -7.41254092	    -13.29770934	      2.78395998	      0.04858927	      5.59676793	     11.47431095	     -7.30063075	     -7.20002357	     -0.59431628	      0.30511668	     -7.84093608	     -9.72980020	     -4.27318679	    120.46479845	     99.48210823	     -7.85401768	     -7.81902956	     -3.69419218	    120.77011828	     93.65292720
      0.07000000	     -0.57611010	     -0.60492434	     -2.87895652	     -0.12622352	      0.95624969	     -0.57646955	     -0.91639901	     -6.09997859	     -7.50238565	      2.13042184	      0.03718288	      4.77421169	      3.60326282	     -7.34011570	     -0.95131132	     -7.39601012	    -13.10693664	      2.74002289	      0.04782242	      5.36367046	     11.08376858	     -7.34011570	     -7.35718672	     -0.60677586	      0.24923096	     -7.72443549	     -9.84758763	     -4.00519999	    120.75141864	     95.88788717	     -7.71111660	     -7.90182137	     -3.49948815	    121.13525387	     90.83712323
      0.08000000	     -0.54176090	     -0.61577639	     -2.85980917	     -0.12695101	      0.95641966	     -0.57642425	     -0.86161190	     -6.07733396	     -7.44471453	      2.22008494	      0.03874779	      4.74386753	      3.43094271	     -7.35358153	     -0.94634703	     -7.39960471	    -12.97782337	      2.71457519	      0.04737827	      5.27726489	     10.86157157	     -7.35358153	     -7.55560901	     -0.59593451	      0.24718770	     -7.55077758	     -9.98217222	     -3.86046500	    120.79509696	     95.13365019	     -7.54413772	     -7.96026286	     -3.42266612	    121.18876663	     90.15533043
      0.09000000	     -0.51122575	     -0.63617207	     -2.86676692	     -0.12776031	      0.95654061	     -0.57636660	     -0.74855417	     -6.05109553	     -7.40670109	      2.39524260	      0.04180487	      4.70718577	      3.26087331	     -7.36688452	     -0.89771104	     -7.42427680	    -12.99676693	      2.76131730	      0.04819408	      5.19014226	     10.78175767	     -7.36688452	     -7.78668868	     -0.58630666	      0.25034793	     -7.33299731	    -10.14739954	     -3.73112854	    120.84322101	     94.62507654	     -7.35648798	     -8.05854471	     -3.30354053	    121.28961176	     89.68774287
      0.10000000	     -0.56773644	     -0.65785064	     -2.90831904	     -0.12868294	      0.95655401	     -0.57620752	     -0.50847796	     -6.00929976	     -7.22570508	      2.60636117	      0.04548958	      4.70637581	      3.01893372	     -7.38091938	     -0.74343876	     -7.46167940	    -12.97173606	      2.83334660	      0.04945123	      5.13325043	     10.60785760	     -7.38091938	     -7.94592336	     -0.57745407	      0.29260008	     -7.09994596	    -10.32280626	     -3.60399057	    120.92424404	     93.79779624	     -7.13234043	     -8.19670086	     -3.13485787	    121.42252672	     88.94848753
      0.11000000	     -0.75680027	     -0.68935167	     -2.92857595	     -0.12968589	      0.95646651	     -0.57595722	     -0.11825597	     -5.93073274	     -6.94601443	      2.81572978	      0.04914376	      4.52179460	      2.42842485	     -7.41876735	     -0.34035707	     -7.56190120	    -13.11899204	      3.09209526	      0.05396724	      5.21650866	     10.83225254	     -7.41876735	     -7.97006559	     -0.54703701	      0.34133440	     -6.88475772	    -10.42289785	     -3.78977757	    120.43875355	     99.91979312	     -6.89435503	     -8.32600151	     -3.18859561	    120.83304035	     94.00868691
      0.12000000	     -0.92672865	     -0.71246129	     -2.91751689	     -0.13088975	      0.95642955	     -0.57577389	      0.27763298	     -5.86682956	     -6.59034846	      3.06268400	      0.05345392	      4.27363918	      1.64951110	     -7.43517547	      0.00313795	     -7.60234808	    -12.82546070	      3.22147665	      0.05622537	      5.08180142	     10.25939533	     -7.43517547	     -8.04862548	     -0.52882489	      0.34046693	     -6.62497168	    -10.52399788	     -3.68663119	    120.52011050	     98.75431985	     -6.62553552	     -8.39145253	     -3.10210984	    120.92702255	     93.17437018
      0.13000000	     -1.07043513	     -0.72242648	     -2.90889176	     -0.13210009	      0.95637934	     -0.57572246	      0.74009497	     -5.86152228	     -6.44152754	      3.49877814	      0.06106520	      4.30355003	      1.33709170	     -7.44318914	      0.34891234	     -7.61869282	    -12.59528715	      3.41618569	      0.05962369	      4.95468217	      9.70867520	     -7.44318914	     -8.17455302	     -0.52729636	      0.33521902	     -6.32189784	    -10.67753843	     -3.51584361	    120.72156261	     96.39902528	     -6.34530309	     -8.46382692	     -2.93331417	    121.18042126	     91.11967245
      0.14000000	     -1.31081736	     -0.75856167	     -2.93126132	     -0.13331153	      0.95619187	     -0.57561658	      1.36925835	     -5.82530242	     -6.37238645	      4.03358183	      0.07039928	      4.39307465	      1.27417862	     -7.44546042	      0.86106166	     -7.70271582	    -12.46406607	      3.75718387	      0.06557523	      4.99243249	      9.47287945	     -7.44546042	     -8.19860907	     -0.49174098	      0.36147408	     -6.04324529	    -10.88083908	     -3.41193194	    120.81261875	     95.95980561	     -6.10074483	     -8.54175725	     -2.81841394	    121.30774856	     90.73147004
      0.15000000	     -1.43110584	     -0.82059838	     -2.95373134	     -0.13467335	      0.95614557	     -0.57538105	      1.82322138	     -5.71588572	     -5.93010859	      4.46366736	      0.07790569	      4.06189642	      0.13346588	     -7.45110213	      1.25949176	     -7.80835723	    -12.22599088	      4.10186725	      0.07159109	      4.86465621	      8.72404215	     -7.45110213	     -8.40312782	     -0.43982194	      0.40255733	     -5.67424237	    -11.04377738	     -3.37354988	    120.76398015	     97.19498374	     -5.74092215	     -8.62935387	     -2.76177760	    121.23755229	     91.48554285
